# AST/ASF file generated using VICON BodyLanguage
# -----------------------------------------------
:version 1.10
:name VICON
:units
  mass 1.0
  length 0.45
  angle deg
:documentation
   .ast/.asf automatically generated from VICON data using
   VICON BodyBuilder and BodyLanguage model FoxedUp or BRILLIANT.MOD
:root
   order TX TY TZ RX RY RZ
   axis XYZ
   position 0 0 0  
   orientation 0 0 0 
:bonedata
  begin
     id 1 
     name lhipjoint
     direction 0.62366 -0.717238 0.310833 
     length 2.53602 
     axis 0 0 0  XYZ
  end
  begin
     id 2 
     name lfemur
     direction 0.34202 -0.939693 0  
     length 7.40817  
     axis 0 0 20  XYZ
    dof rx ry rz
    limits (-160.0 20.0)
           (-70.0 70.0)
           (-60.0 70.0)
  end
  begin
     id 3 
     name ltibia
     direction 0.34202 -0.939693 0   
     length 7.7045   
     axis 0 0 20   XYZ
    dof rx
    limits (-10.0 170.0)
  end
  begin
     id 4 
     name lfoot
     direction 0.0673888 -0.185149 0.980397   
     length 2.09456   
     axis -90 7.62852e-016 20   XYZ
    dof rx rz
    limits (-45.0 90.0)
           (-70.0 20.0)
  end
  begin
     id 5 
     name ltoes
     direction 1.53575e-011 -4.21994e-011 1   
     length 1.05543   
     axis -90 7.62852e-016 20   XYZ
    dof rx
    limits (-90.0 20.0)
  end
  begin
     id 6 
     name rhipjoint
     direction -0.489018 -0.800347 0.346851   
     length 2.27268  
     axis 0 0 0  XYZ 
  end
  begin
     id 7 
     name rfemur
     direction -0.34202 -0.939693 0   
     length 7.55487   
     axis 0 0 -20   XYZ
    dof rx ry rz
    limits (-160.0 20.0)
           (-70.0 70.0)
           (-70.0 60.0)
  end
  begin
     id 8 
     name rtibia
     direction -0.34202 -0.939693 0   
     length 7.78969   
     axis 0 0 -20   XYZ
    dof rx
    limits (-10.0 170.0)
 end
 begin
     id 9 
     name rfoot
     direction -0.0859318 -0.236096 0.967923   
     length 2.19143  
     axis -90 -7.62852e-016 -20   XYZ
    dof rx rz
    limits (-45.0 90.0)
           (-20.0 70.0)
  end
  begin
     id 10 
     name rtoes
     direction -1.53538e-011 -4.21989e-011 1   
     length 1.09845   
     axis -90 -7.62852e-016 -20   XYZ
    dof rx
    limits (-90.0 20.0)
  end
  begin
     id 11 
     name lowerback
     direction -0.00762546 0.998978 -0.0445553   
     length 1.98161   
     axis 0 0 0   XYZ
    dof rx ry rz
    limits (-20.0 45.0)
           (-30.0 30.0)
           (-30.0 30.0)
  end
  begin
     id 12 
     name upperback
     direction 0.0422361 0.998867 -0.0219156   
     length 1.97558   
     axis 0 0 0   XYZ
    dof rx ry rz
    limits (-20.0 45.0)
           (-30.0 30.0)
           (-30.0 30.0)
  end
  begin
     id 13 
     name thorax
     direction 0.0442465 0.999021 7.47603e-005   
     length 1.97799   
     axis 0 0 0   XYZ
    dof rx ry rz
    limits (-20.0 45.0)
           (-30.0 30.0)
           (-30.0 30.0)
  end
  begin
     id 14 
     name lowerneck
     direction 0.00312169 0.984641 0.174564   
     length 1.78995   
     axis 0 0 0   XYZ
    dof rx ry rz
    limits (-20.0 45.0)
           (-30.0 30.0)
           (-30.0 30.0)
  end
  begin
     id 15 
     name upperneck
     direction -0.0383028 0.985255 -0.166749   
     length 1.83053   
     axis 0 0 0   XYZ
    dof rx ry rz
    limits (-20.0 45.0)
           (-30.0 30.0)
           (-30.0 30.0)
  end
  begin
     id 16
     name head
     direction -0.0129546 0.997059 -0.0755386  
     length 1.84088  
     axis 0 0 0   XYZ
    dof rx ry rz
    limits (-20.0 45.0)
           (-30.0 30.0)
           (-30.0 30.0)
  end
  begin
     id 17 
     name lclavicle
     direction 0.912857 0.370519 -0.171488  
     length 3.51279  
     axis 0 0 0   XYZ
    dof ry rz
    limits (-20.0 10.0)
           (0.0 20.0)
  end
  begin
     id 18 
     name lhumerus
     direction 1 -4.48962e-011 3.64361e-027   
     length 4.95663   
     axis 180 -30 -90   XYZ
    dof rx ry rz
    limits (-60.0 90.0)
           (-90.0 90.0)
           (-90.0 90.0)
  end
  begin
     id 19
     name lradius
     direction 1 -4.48974e-011 5.97202e-027   
     length 3.38177   
     axis 180 -30 -90   XYZ
    dof rx
    limits (-10.0 170.0)
  end
  begin
     id 20
     name lwrist
     direction 1 -4.4896e-011 9.83288e-027   
     length 1.69088   
     axis -9.31221e-015 90 90   XYZ
    dof ry
    limits (-180.0 0.0)
 end
  begin
     id 21 
     name lhand
     direction 1 -4.4902e-011 1.96551e-026   
     length 0.662909   
     axis -1.25475e-014 90 90   XYZ
    dof rx rz
    limits (-90.0 90.0)
           (-45.0 45.0)
  end
  begin
     id 22 
     name lfingers
     direction 1 -4.48971e-011 3.93277e-026   
     length 0.534454   
     axis -2.50945e-014 90 90   XYZ
    dof rx
    limits (0.0 90.0)
  end
  begin
     id 23
     name lthumb
     direction 0.707107 -6.34933e-011 0.707107   
     length 0.767373   
     axis -90 45 -4.80359e-014   XYZ
    dof rx rz
    limits (-45.0 45.0)
           (-45.0 45.0)
  end
  begin
     id 24 
     name rclavicle
     direction -0.900919 0.395364 -0.178976   
     length 3.40627  
     axis 0 0 0   XYZ 
    dof ry rz
    limits (-10.0 20.0)
           (-20.0 0.0)
  end
  begin
     id 25 
     name rhumerus
     direction -1 -4.48969e-011 1.03875e-027  
     length 5.08365   
     axis 180 30 90   XYZ
    dof rx ry rz
    limits (-90.0 60.0)
           (-90.0 90.0)
           (-90.0 90.0)
  end
  begin
     id 26 
     name rradius
     direction -1 -4.48951e-011 5.02733e-027   
     length 3.35984   
     axis 180 30 90   XYZ
    dof rx
    limits (-10.0 170.0)
  end
  begin
     id 27 
     name rwrist
     direction -1 -4.49011e-011 9.82828e-027   
     length 1.67992   
     axis -9.31221e-015 -90 -90   XYZ
    dof ry
    limits (-180.0 0.0)
  end
  begin
     id 28
     name rhand
     direction -1 -4.48894e-011 1.96774e-026   
     length 0.820764   
     axis -1.25475e-014 -90 -90   XYZ
    dof rx rz
    limits (-90.0 90.0)
           (-45.0 45.0)
  end
  begin
     id 29
     name rfingers
     direction -1 -4.49095e-011 3.92833e-026   
     length 0.661721   
     axis -2.50945e-014 -90 -90   XYZ
    dof rx
    limits (0.0 90.0)
  end
  begin
     id 30
     name rthumb
     direction -0.707107 -6.34881e-011 0.707107   
     length 0.950103   
     axis -90 -45 4.80359e-014   XYZ
    dof rx rz
    limits (-45.0 45.0)
           (-45.0 45.0)
  end
:hierarchy
  begin
    root lhipjoint rhipjoint lowerback
    lhipjoint lfemur
    lfemur ltibia
    ltibia lfoot
    lfoot ltoes
    rhipjoint rfemur
    rfemur rtibia
    rtibia rfoot
    rfoot rtoes
    lowerback upperback
    upperback thorax
    thorax lowerneck lclavicle rclavicle
    lowerneck upperneck
    upperneck head
    lclavicle lhumerus
    lhumerus lradius
    lradius lwrist
    lwrist lhand lthumb
    lhand lfingers
    rclavicle rhumerus
    rhumerus rradius
    rradius rwrist
    rwrist rhand rthumb
    rhand rfingers
  end

#!OML:ASF I:\golf\golf\golf 2\Subject 1\2002-09-07\Subject1.ASF
:FULLY-SPECIFIED
:DEGREES
122
root -6.16545 17.6666 2.2777 -6.47959 45.0564 -19.1687
lowerback 0.272613 -8.25954 -14.4249
upperback 1.64499 -10.7314 -2.18065
thorax 3.81085 -5.58317 5.04555
lowerneck -6.87504 19.2974 4.36405
upperneck 23.2926 29.3893 -9.53003
head 10.7509 12.972 -0.255789
rclavicle -4.86029e-014 -4.45278e-014
rhumerus -3.746 -9.51147 -86.1254
rradius 91.769
rwrist -35.5741
rhand -62.1124 15.7832
rfingers 7.12502
rthumb -34.1605 -10.9648
lclavicle -4.86029e-014 -4.45278e-014
lhumerus 87.9157 -60.5186 36.1277
lradius 27.9656
lwrist 3.67402
lhand -11.2993 14.8345
lfingers 7.12502
lthumb -165.268 -135.709
rfemur -27.324 12.8008 30.4554
rtibia 29.2008
rfoot -4.87597 21.9569
rtoes 25.8501
lfemur -3.83465 17.7985 9.84003
ltibia 35.0074
lfoot -6.50627 16.4941
ltoes -32.9549
123
root -6.16013 17.6697 2.31721 -5.94072 44.4963 -18.4756
lowerback 0.351367 -8.41127 -14.8747
upperback 1.4535 -10.9542 -2.22836
thorax 3.68208 -5.68237 5.22796
lowerneck -6.80418 19.5368 4.07844
upperneck 22.9283 29.6984 -9.57261
head 10.5907 13.1149 -0.218949
rclavicle 2.3233e-014 2.8625e-014
rhumerus -3.0295 -9.66956 -85.4698
rradius 93.0157
rwrist -34.5406
rhand -61.9638 16.804
rfingers 7.12502
rthumb -34.0193 -9.97543
lclavicle 2.3233e-014 2.8625e-014
lhumerus 88.8224 -59.6521 36.275
lradius 28.177
lwrist 2.99255
lhand -12.2365 13.7077
lfingers 7.12502
lthumb -166.171 -136.772
rfemur -27.304 13.0594 30.1964
rtibia 29.3737
rfoot -4.53513 22.3427
rtoes 27.3632
lfemur -3.40466 17.5177 9.55026
ltibia 35.0652
lfoot -6.39937 16.5113
ltoes -33.1218
124
root -6.15543 17.6733 2.3601 -5.46823 43.8685 -17.8978
lowerback 0.311345 -8.53836 -15.233
upperback 1.32461 -11.1187 -2.28299
thorax 3.65804 -5.75896 5.33709
lowerneck -6.86567 19.75 3.88721
upperneck 22.6297 29.9779 -9.63944
head 10.4953 13.2358 -0.184378
rclavicle 2.83268e-015 3.49861e-014
rhumerus -2.17063 -9.8817 -84.9129
rradius 94.2005
rwrist -33.2248
rhand -61.9087 17.9187
rfingers 7.12502
rthumb -33.967 -8.87243
lclavicle 2.83268e-015 3.49861e-014
lhumerus 89.7741 -58.7868 36.3554
lradius 28.4577
lwrist 2.39056
lhand -13.1029 12.8936
lfingers 7.12502
lthumb -167.006 -137.531
rfemur -27.2742 13.2858 30.0569
rtibia 29.5255
rfoot -4.34464 22.8176
rtoes 28.0479
lfemur -3.10306 17.6035 9.36885
ltibia 35.1936
lfoot -5.98118 16.6718
ltoes -33.4366
125
root -6.14966 17.6814 2.40243 -5.00311 43.2592 -17.3809
lowerback 0.210869 -8.64524 -15.4885
upperback 1.17107 -11.2473 -2.37785
thorax 3.60594 -5.81143 5.3501
lowerneck -6.67719 19.9095 3.88822
upperneck 22.1024 30.1493 -9.86903
head 10.3225 13.3371 -0.269367
rclavicle 9.323e-014 -4.13472e-014
rhumerus -1.12481 -10.0981 -84.2445
rradius 95.237
rwrist -31.7907
rhand -62.092 19.6469
rfingers 7.12502
rthumb -34.1411 -7.10539
lclavicle 9.323e-014 -4.13472e-014
lhumerus 90.8219 -58.0152 36.3453
lradius 28.7643
lwrist 2.00364
lhand -13.801 12.0369
lfingers 7.12502
lthumb -167.679 -138.346
rfemur -27.2706 13.4906 29.9471
rtibia 29.6508
rfoot -4.15849 23.2589
rtoes 28.4923
lfemur -2.91203 17.7313 9.17429
ltibia 35.3768
lfoot -5.84098 16.9698
ltoes -32.4113
126
root -6.14446 17.6847 2.44258 -4.67299 42.6449 -17.1121
lowerback 0.0340241 -8.74895 -15.5223
upperback 1.03342 -11.3616 -2.43106
thorax 3.57581 -5.85688 5.28268
lowerneck -6.49628 20.0509 3.84656
upperneck 21.5144 30.2914 -10.1244
head 10.1265 13.4248 -0.364434
rclavicle -1.89939e-013 4.13472e-014
rhumerus -0.0948026 -10.3323 -83.5267
rradius 96.1805
rwrist -30.2256
rhand -62.222 20.6941
rfingers 7.12502
rthumb -34.2645 -6.03056
lclavicle -1.89939e-013 4.13472e-014
lhumerus 91.6789 -57.2221 36.6175
lradius 28.9562
lwrist 1.48314
lhand -14.2764 10.6036
lfingers 7.12502
lthumb -168.137 -139.752
rfemur -27.2995 13.8522 29.9762
rtibia 29.7374
rfoot -3.95267 23.5035
rtoes 29.1944
lfemur -2.72384 17.7239 9.16415
ltibia 35.5781
lfoot -5.40925 17.1397
ltoes -32.8711
127
root -6.13991 17.6862 2.48144 -4.39233 41.9982 -16.9052
lowerback -0.108712 -8.85401 -15.4515
upperback 0.889595 -11.4868 -2.4889
thorax 3.50013 -5.90348 5.16382
lowerneck -6.46433 20.1964 3.74125
upperneck 21.1525 30.4436 -10.186
head 9.99595 13.5079 -0.370758
rclavicle 1.27222e-013 -1.59028e-014
rhumerus 0.942757 -10.6815 -82.9784
rradius 97.1751
rwrist -28.8518
rhand -62.0019 22.0506
rfingers 7.12502
rthumb -34.0555 -4.72081
lclavicle 1.27222e-013 -1.59028e-014
lhumerus 92.7512 -56.3698 36.4826
lradius 29.2583
lwrist 1.26189
lhand -15.004 9.36564
lfingers 7.12502
lthumb -168.839 -140.951
rfemur -27.3509 14.4165 30.0117
rtibia 29.8916
rfoot -3.9457 23.6139
rtoes 29.5466
lfemur -2.4668 17.8094 9.24272
ltibia 35.6853
lfoot -4.49951 17.1458
ltoes -34.4947
128
root -6.13403 17.6915 2.5174 -4.02755 41.4164 -16.4368
lowerback -0.0714989 -8.99163 -15.6331
upperback 0.686108 -11.6908 -2.53809
thorax 3.32748 -5.98385 5.20555
lowerneck -6.21271 20.354 3.60348
upperneck 20.7552 30.6124 -10.2665
head 9.81505 13.6118 -0.405421
rclavicle -6.48038e-014 3.49861e-014
rhumerus 2.03092 -10.9733 -82.4612
rradius 98.1779
rwrist -27.575
rhand -61.6068 25.4434
rfingers 7.12502
rthumb -33.6801 -1.41081
lclavicle -6.48038e-014 3.49861e-014
lhumerus 93.6282 -55.5139 36.498
lradius 29.5565
lwrist 1.2381
lhand -15.8724 8.33598
lfingers 7.12502
lthumb -169.677 -141.937
rfemur -27.374 14.8249 29.8465
rtibia 30.1795
rfoot -3.99415 23.8366
rtoes 29.9701
lfemur -2.09875 17.8946 9.09067
ltibia 35.6541
lfoot -4.26436 17.2714
ltoes -33.1215
129
root -6.12776 17.7048 2.55671 -3.69404 40.8802 -15.9388
lowerback -0.0456173 -9.12776 -15.8721
upperback 0.528506 -11.8848 -2.59624
thorax 3.2189 -6.06516 5.25988
lowerneck -6.01934 20.5295 3.49071
upperneck 20.3455 30.8109 -10.3846
head 9.65404 13.7246 -0.441951
rclavicle -1.53064e-014 1.59028e-014
rhumerus 3.09201 -11.1703 -81.8604
rradius 99.0302
rwrist -26.12
rhand -61.4582 26.975
rfingers 7.12502
rthumb -33.5389 0.0901108
lclavicle -1.53064e-014 1.59028e-014
lhumerus 94.3525 -54.6839 36.7784
lradius 29.7592
lwrist 1.04646
lhand -16.1702 7.09983
lfingers 7.12502
lthumb -169.964 -143.159
rfemur -27.3235 15.0829 29.6701
rtibia 30.5519
rfoot -4.20968 24.044
rtoes 30.0037
lfemur -1.64547 17.8698 8.91917
ltibia 35.5579
lfoot -4.14042 17.3485
ltoes -31.7913
